<svg width="507" height="283" viewBox="0 0 507 283" fill="none" xmlns="http://www.w3.org/2000/svg">

<path d="M225.515 76.4947V80.5967C224.238 79.9055 222.962 79.3946 221.686 79.0641C220.44 78.7335 219.164 78.5682 217.857 78.5682C214.97 78.5682 212.721 79.4697 211.111 81.2728C209.531 83.0759 208.741 85.6153 208.741 88.8909C208.741 92.1965 209.531 94.7509 211.111 96.554C212.721 98.3571 214.97 99.2586 217.857 99.2586C219.164 99.2586 220.44 99.0933 221.686 98.7627C222.962 98.4322 224.238 97.9213 225.515 97.2301V101.287C224.269 101.858 222.977 102.294 221.64 102.594C220.303 102.865 218.89 103 217.401 103C213.299 103 210.047 101.738 207.647 99.2135C205.216 96.6591 204 93.2183 204 88.8909C204 84.5334 205.216 81.0925 207.647 78.5682C210.108 76.0439 213.451 74.7817 217.675 74.7817C219.042 74.7817 220.379 74.932 221.686 75.2325C222.992 75.503 224.269 75.9237 225.515 76.4947ZM243.793 78.5682C241.423 78.5682 239.539 79.4848 238.141 81.3179C236.743 83.1511 236.044 85.6754 236.044 88.8909C236.044 92.1064 236.728 94.6457 238.095 96.5089C239.493 98.342 241.392 99.2586 243.793 99.2586C246.193 99.2586 248.078 98.342 249.445 96.5089C250.843 94.6457 251.542 92.1064 251.542 88.8909C251.542 85.7355 250.843 83.2262 249.445 81.363C248.078 79.4998 246.193 78.5682 243.793 78.5682ZM243.793 74.7817C247.682 74.7817 250.736 76.0439 252.955 78.5682C255.173 81.0625 256.282 84.5034 256.282 88.8909C256.282 93.3084 255.173 96.7643 252.955 99.2586C250.736 101.753 247.682 103 243.793 103C239.903 103 236.849 101.753 234.631 99.2586C232.443 96.7643 231.349 93.3084 231.349 88.8909C231.349 84.5034 232.443 81.0625 234.631 78.5682C236.849 76.0439 239.903 74.7817 243.793 74.7817ZM263.666 102.324V65H268.133V102.324H263.666ZM288.007 78.5682C285.606 78.5682 283.707 79.4848 282.309 81.3179C280.942 83.1511 280.258 85.6754 280.258 88.8909C280.258 92.1064 280.942 94.6457 282.309 96.5089C283.707 98.342 285.606 99.2586 288.007 99.2586C290.377 99.2586 292.261 98.342 293.659 96.5089C295.057 94.6457 295.756 92.1064 295.756 88.8909C295.756 85.7355 295.057 83.2262 293.659 81.363C292.261 79.4998 290.377 78.5682 288.007 78.5682ZM288.007 74.7817C291.897 74.7817 294.951 76.0439 297.169 78.5682C299.387 81.0625 300.496 84.5034 300.496 88.8909C300.496 93.3084 299.387 96.7643 297.169 99.2586C294.951 101.753 291.897 103 288.007 103C284.117 103 281.063 101.753 278.845 99.2586C276.627 96.7643 275.518 93.3084 275.518 88.8909C275.518 84.5034 276.627 81.0625 278.845 78.5682C281.063 76.0439 284.117 74.7817 288.007 74.7817ZM330.444 86.0961V102.324H326.022V86.2313C326.022 83.707 325.521 81.8138 324.518 80.5516C323.515 79.2894 322.011 78.6584 320.005 78.6584C317.574 78.6584 315.66 79.4096 314.262 80.9122C312.895 82.4448 312.211 84.5184 312.211 87.1329V102.324H307.698V75.4579H312.211V79.605C313.275 78.0122 314.52 76.8102 315.949 75.9988C317.407 75.1874 319.079 74.7817 320.963 74.7817C324.093 74.7817 326.463 75.7434 328.073 77.6667C329.654 79.5899 330.444 82.3998 330.444 86.0961ZM338.922 91.7307V75.4579H343.389V91.5504C343.389 94.1048 343.89 96.013 344.893 97.2752C345.896 98.5374 347.4 99.1684 349.406 99.1684C351.806 99.1684 353.706 98.4172 355.103 96.9146C356.501 95.382 357.2 93.3084 357.2 90.694V75.4579H361.667V102.324H357.2V98.1767C356.106 99.8296 354.845 101.047 353.417 101.828C351.989 102.609 350.332 103 348.448 103C345.318 103 342.948 102.053 341.338 100.16C339.727 98.2369 338.922 95.427 338.922 91.7307ZM388.196 76.2242V80.4164C386.919 79.7853 385.613 79.3045 384.276 78.9739C382.908 78.6433 381.495 78.478 380.037 78.478C377.818 78.478 376.147 78.8237 375.023 79.5148C373.929 80.176 373.382 81.1827 373.382 82.535C373.382 83.5567 373.777 84.3681 374.567 84.9692C375.357 85.5401 376.952 86.081 379.353 86.5919L380.903 86.9526C384.063 87.6137 386.296 88.5603 387.603 89.7924C388.971 91.0245 389.654 92.7374 389.654 94.9312C389.654 97.4255 388.651 99.3938 386.646 100.836C384.64 102.279 381.89 103 378.396 103C376.937 103 375.418 102.865 373.837 102.594C372.288 102.324 370.632 101.903 368.869 101.332V96.7794C370.51 97.6208 372.136 98.2669 373.746 98.7177C375.357 99.1083 376.937 99.3037 378.487 99.3037C380.614 99.3037 382.24 98.9581 383.364 98.2669C384.488 97.5457 385.051 96.5389 385.051 95.2467C385.051 94.0447 384.64 93.1281 383.82 92.497C382.999 91.8359 381.206 91.2198 378.441 90.6489L376.891 90.2882C374.126 89.7173 372.136 88.8308 370.92 87.6287C369.674 86.4267 369.051 84.7888 369.051 82.7153C369.051 80.191 369.963 78.2376 371.786 76.8553C373.61 75.4729 376.177 74.7817 379.49 74.7817C381.13 74.7817 382.68 74.9019 384.139 75.1424C385.598 75.3828 386.95 75.7434 388.196 76.2242ZM397.358 102.324V96.2384H402.508V102.324H397.358ZM411.989 102.324V65H420.695V102.324H411.989ZM445.72 90.2432H441.207C439.384 90.2432 438.016 90.5437 437.105 91.1447C436.193 91.7458 435.737 92.6473 435.737 93.8494C435.737 94.9312 436.102 95.7877 436.831 96.4188C437.561 97.0198 438.579 97.3203 439.885 97.3203C441.526 97.3203 442.909 96.7343 444.033 95.5623C445.158 94.4203 445.72 92.9779 445.72 91.2349V90.2432ZM454.471 86.9976V102.324H445.72V98.312C444.535 99.9648 443.213 101.167 441.754 101.918C440.326 102.639 438.563 103 436.467 103C433.641 103 431.346 102.189 429.584 100.566C427.852 98.943 426.986 96.8395 426.986 94.255C426.986 91.0996 428.08 88.7857 430.268 87.3132C432.456 85.8407 435.889 85.1044 440.569 85.1044H445.72V84.4282C445.72 83.0759 445.173 82.0842 444.079 81.4531C442.985 80.8221 441.298 80.5065 439.019 80.5065C437.166 80.5065 435.433 80.6868 433.823 81.0474C432.212 81.4081 430.723 81.964 429.356 82.7153V76.1791C431.21 75.7283 433.078 75.3828 434.962 75.1424C436.847 74.9019 438.715 74.7817 440.569 74.7817C445.492 74.7817 449.032 75.7434 451.19 77.6667C453.378 79.5899 454.471 82.7003 454.471 86.9976ZM463.36 67.7948H472.02V75.4579H481V81.5884H472.02V92.9929C472.02 94.225 472.279 95.0664 472.795 95.5172C473.282 95.968 474.269 96.1934 475.758 96.1934H480.225V102.324H472.795C469.361 102.324 466.915 101.618 465.457 100.205C464.059 98.7928 463.36 96.3887 463.36 92.9929V81.5884H459.03V75.4579H463.36V67.7948Z" fill="#014B95"/>
<path d="M206.114 145V127.545H216.58V129.42H208.227V135.318H215.795V137.193H208.227V145H206.114ZM223.779 145.307C222.95 145.307 222.197 145.151 221.521 144.838C220.844 144.52 220.308 144.062 219.91 143.466C219.512 142.864 219.313 142.136 219.313 141.284C219.313 140.534 219.461 139.926 219.756 139.46C220.052 138.989 220.447 138.619 220.941 138.352C221.435 138.085 221.981 137.886 222.577 137.756C223.18 137.619 223.785 137.511 224.393 137.432C225.188 137.33 225.833 137.253 226.327 137.202C226.827 137.145 227.191 137.051 227.418 136.92C227.651 136.79 227.768 136.562 227.768 136.239V136.17C227.768 135.33 227.538 134.676 227.077 134.21C226.623 133.744 225.933 133.511 225.006 133.511C224.046 133.511 223.293 133.722 222.748 134.142C222.202 134.562 221.819 135.011 221.597 135.489L219.688 134.807C220.029 134.011 220.484 133.392 221.052 132.949C221.626 132.5 222.251 132.187 222.927 132.011C223.609 131.83 224.279 131.739 224.938 131.739C225.359 131.739 225.842 131.79 226.387 131.892C226.938 131.989 227.469 132.19 227.981 132.497C228.498 132.804 228.927 133.267 229.268 133.886C229.609 134.506 229.779 135.335 229.779 136.375V145H227.768V143.227H227.665C227.529 143.511 227.302 143.815 226.984 144.139C226.665 144.463 226.242 144.739 225.714 144.966C225.185 145.193 224.54 145.307 223.779 145.307ZM224.086 143.5C224.881 143.5 225.552 143.344 226.097 143.031C226.648 142.719 227.063 142.315 227.342 141.821C227.626 141.327 227.768 140.807 227.768 140.261V138.42C227.683 138.523 227.495 138.616 227.205 138.702C226.921 138.781 226.592 138.852 226.217 138.915C225.847 138.972 225.487 139.023 225.134 139.068C224.788 139.108 224.506 139.142 224.29 139.17C223.768 139.239 223.279 139.349 222.825 139.503C222.376 139.651 222.012 139.875 221.734 140.176C221.461 140.472 221.325 140.875 221.325 141.386C221.325 142.085 221.583 142.614 222.1 142.972C222.623 143.324 223.285 143.5 224.086 143.5ZM224.154 130.136L226.234 126.182H228.586L225.927 130.136H224.154ZM238.768 145.273C237.541 145.273 236.484 144.983 235.598 144.403C234.712 143.824 234.03 143.026 233.553 142.009C233.075 140.991 232.837 139.83 232.837 138.523C232.837 137.193 233.081 136.02 233.57 135.003C234.064 133.98 234.751 133.182 235.632 132.608C236.518 132.028 237.553 131.739 238.734 131.739C239.655 131.739 240.484 131.909 241.223 132.25C241.962 132.591 242.567 133.068 243.038 133.682C243.51 134.295 243.803 135.011 243.916 135.83H241.905C241.751 135.233 241.411 134.705 240.882 134.244C240.359 133.778 239.655 133.545 238.768 133.545C237.984 133.545 237.297 133.75 236.706 134.159C236.121 134.562 235.663 135.134 235.334 135.872C235.01 136.605 234.848 137.466 234.848 138.455C234.848 139.466 235.007 140.347 235.325 141.097C235.649 141.847 236.104 142.429 236.689 142.844C237.28 143.259 237.973 143.466 238.768 143.466C239.291 143.466 239.766 143.375 240.192 143.193C240.618 143.011 240.979 142.75 241.274 142.409C241.57 142.068 241.78 141.659 241.905 141.182H243.916C243.803 141.955 243.521 142.651 243.072 143.27C242.629 143.884 242.041 144.372 241.308 144.736C240.581 145.094 239.734 145.273 238.768 145.273ZM246.857 145V131.909H248.868V145H246.857ZM247.879 129.727C247.487 129.727 247.149 129.594 246.865 129.327C246.587 129.06 246.447 128.739 246.447 128.364C246.447 127.989 246.587 127.668 246.865 127.401C247.149 127.134 247.487 127 247.879 127C248.271 127 248.607 127.134 248.885 127.401C249.169 127.668 249.311 127.989 249.311 128.364C249.311 128.739 249.169 129.06 248.885 129.327C248.607 129.594 248.271 129.727 247.879 129.727ZM254.563 127.545V145H252.552V127.545H254.563ZM261.247 142.614L261.111 143.534C261.014 144.182 260.866 144.875 260.668 145.614C260.474 146.352 260.273 147.048 260.062 147.702C259.852 148.355 259.679 148.875 259.543 149.261H258.009C258.082 148.898 258.179 148.418 258.298 147.821C258.418 147.224 258.537 146.557 258.656 145.818C258.781 145.085 258.884 144.335 258.963 143.568L259.065 142.614H261.247ZM271.724 145V131.909H273.667V133.886H273.803C274.042 133.239 274.474 132.713 275.099 132.31C275.724 131.906 276.428 131.705 277.212 131.705C277.36 131.705 277.545 131.707 277.766 131.713C277.988 131.719 278.156 131.727 278.269 131.739V133.784C278.201 133.767 278.045 133.741 277.8 133.707C277.562 133.668 277.309 133.648 277.042 133.648C276.406 133.648 275.837 133.781 275.337 134.048C274.843 134.31 274.451 134.673 274.161 135.139C273.877 135.599 273.735 136.125 273.735 136.716V145H271.724ZM284.506 145.307C283.676 145.307 282.923 145.151 282.247 144.838C281.571 144.52 281.034 144.062 280.636 143.466C280.239 142.864 280.04 142.136 280.04 141.284C280.04 140.534 280.188 139.926 280.483 139.46C280.778 138.989 281.173 138.619 281.668 138.352C282.162 138.085 282.707 137.886 283.304 137.756C283.906 137.619 284.511 137.511 285.119 137.432C285.915 137.33 286.56 137.253 287.054 137.202C287.554 137.145 287.918 137.051 288.145 136.92C288.378 136.79 288.494 136.562 288.494 136.239V136.17C288.494 135.33 288.264 134.676 287.804 134.21C287.349 133.744 286.659 133.511 285.733 133.511C284.773 133.511 284.02 133.722 283.474 134.142C282.929 134.562 282.545 135.011 282.324 135.489L280.415 134.807C280.756 134.011 281.21 133.392 281.778 132.949C282.352 132.5 282.977 132.187 283.653 132.011C284.335 131.83 285.006 131.739 285.665 131.739C286.085 131.739 286.568 131.79 287.114 131.892C287.665 131.989 288.196 132.19 288.707 132.497C289.224 132.804 289.653 133.267 289.994 133.886C290.335 134.506 290.506 135.335 290.506 136.375V145H288.494V143.227H288.392C288.256 143.511 288.028 143.815 287.71 144.139C287.392 144.463 286.969 144.739 286.44 144.966C285.912 145.193 285.267 145.307 284.506 145.307ZM284.812 143.5C285.608 143.5 286.278 143.344 286.824 143.031C287.375 142.719 287.79 142.315 288.068 141.821C288.352 141.327 288.494 140.807 288.494 140.261V138.42C288.409 138.523 288.222 138.616 287.932 138.702C287.648 138.781 287.318 138.852 286.943 138.915C286.574 138.972 286.213 139.023 285.861 139.068C285.514 139.108 285.233 139.142 285.017 139.17C284.494 139.239 284.006 139.349 283.551 139.503C283.102 139.651 282.739 139.875 282.46 140.176C282.188 140.472 282.051 140.875 282.051 141.386C282.051 142.085 282.31 142.614 282.827 142.972C283.349 143.324 284.011 143.5 284.812 143.5ZM284.881 130.136L286.96 126.182H289.312L286.653 130.136H284.881ZM294.177 149.909V131.909H296.12V133.989H296.359C296.506 133.761 296.711 133.472 296.972 133.119C297.239 132.761 297.62 132.443 298.114 132.165C298.614 131.881 299.29 131.739 300.143 131.739C301.245 131.739 302.217 132.014 303.058 132.565C303.898 133.116 304.555 133.898 305.026 134.909C305.498 135.92 305.734 137.114 305.734 138.489C305.734 139.875 305.498 141.077 305.026 142.094C304.555 143.105 303.901 143.889 303.066 144.446C302.231 144.997 301.268 145.273 300.177 145.273C299.336 145.273 298.663 145.134 298.157 144.855C297.651 144.571 297.262 144.25 296.989 143.892C296.717 143.528 296.506 143.227 296.359 142.989H296.188V149.909H294.177ZM296.154 138.455C296.154 139.443 296.299 140.315 296.589 141.071C296.879 141.821 297.302 142.409 297.859 142.835C298.415 143.256 299.097 143.466 299.904 143.466C300.745 143.466 301.447 143.244 302.009 142.801C302.577 142.352 303.004 141.75 303.288 140.994C303.577 140.233 303.722 139.386 303.722 138.455C303.722 137.534 303.58 136.705 303.296 135.966C303.018 135.222 302.594 134.634 302.026 134.202C301.464 133.764 300.756 133.545 299.904 133.545C299.086 133.545 298.398 133.753 297.842 134.168C297.285 134.577 296.864 135.151 296.58 135.889C296.296 136.622 296.154 137.477 296.154 138.455ZM308.802 145V131.909H310.813V145H308.802ZM309.825 129.727C309.433 129.727 309.094 129.594 308.81 129.327C308.532 129.06 308.393 128.739 308.393 128.364C308.393 127.989 308.532 127.668 308.81 127.401C309.094 127.134 309.433 127 309.825 127C310.217 127 310.552 127.134 310.83 127.401C311.114 127.668 311.256 127.989 311.256 128.364C311.256 128.739 311.114 129.06 310.83 129.327C310.552 129.594 310.217 129.727 309.825 129.727ZM319.44 145.273C318.349 145.273 317.386 144.997 316.551 144.446C315.716 143.889 315.063 143.105 314.591 142.094C314.119 141.077 313.884 139.875 313.884 138.489C313.884 137.114 314.119 135.92 314.591 134.909C315.063 133.898 315.719 133.116 316.56 132.565C317.401 132.014 318.372 131.739 319.474 131.739C320.327 131.739 321 131.881 321.494 132.165C321.994 132.443 322.375 132.761 322.636 133.119C322.903 133.472 323.111 133.761 323.259 133.989H323.429V127.545H325.44V145H323.497V142.989H323.259C323.111 143.227 322.901 143.528 322.628 143.892C322.355 144.25 321.966 144.571 321.46 144.855C320.955 145.134 320.281 145.273 319.44 145.273ZM319.713 143.466C320.52 143.466 321.202 143.256 321.759 142.835C322.315 142.409 322.739 141.821 323.028 141.071C323.318 140.315 323.463 139.443 323.463 138.455C323.463 137.477 323.321 136.622 323.037 135.889C322.753 135.151 322.332 134.577 321.776 134.168C321.219 133.753 320.531 133.545 319.713 133.545C318.861 133.545 318.151 133.764 317.582 134.202C317.02 134.634 316.597 135.222 316.312 135.966C316.034 136.705 315.895 137.534 315.895 138.455C315.895 139.386 316.037 140.233 316.321 140.994C316.611 141.75 317.037 142.352 317.599 142.801C318.168 143.244 318.872 143.466 319.713 143.466ZM334.722 145.273C333.54 145.273 332.503 144.991 331.611 144.429C330.724 143.866 330.031 143.08 329.531 142.068C329.037 141.057 328.79 139.875 328.79 138.523C328.79 137.159 329.037 135.969 329.531 134.952C330.031 133.935 330.724 133.145 331.611 132.582C332.503 132.02 333.54 131.739 334.722 131.739C335.903 131.739 336.938 132.02 337.824 132.582C338.716 133.145 339.409 133.935 339.903 134.952C340.403 135.969 340.653 137.159 340.653 138.523C340.653 139.875 340.403 141.057 339.903 142.068C339.409 143.08 338.716 143.866 337.824 144.429C336.938 144.991 335.903 145.273 334.722 145.273ZM334.722 143.466C335.619 143.466 336.358 143.236 336.938 142.776C337.517 142.315 337.946 141.71 338.224 140.96C338.503 140.21 338.642 139.398 338.642 138.523C338.642 137.648 338.503 136.832 338.224 136.077C337.946 135.321 337.517 134.71 336.938 134.244C336.358 133.778 335.619 133.545 334.722 133.545C333.824 133.545 333.085 133.778 332.506 134.244C331.926 134.71 331.497 135.321 331.219 136.077C330.94 136.832 330.801 137.648 330.801 138.523C330.801 139.398 330.94 140.21 331.219 140.96C331.497 141.71 331.926 142.315 332.506 142.776C333.085 143.236 333.824 143.466 334.722 143.466ZM351.769 149.909C351.428 149.909 351.124 149.881 350.857 149.824C350.59 149.773 350.406 149.722 350.303 149.67L350.815 147.898C351.303 148.023 351.735 148.068 352.11 148.034C352.485 148 352.817 147.832 353.107 147.531C353.403 147.236 353.673 146.756 353.917 146.091L354.292 145.068L349.451 131.909H351.633L355.246 142.341H355.383L358.996 131.909H361.178L355.621 146.909C355.371 147.585 355.062 148.145 354.692 148.588C354.323 149.037 353.894 149.369 353.406 149.585C352.923 149.801 352.377 149.909 351.769 149.909ZM379.856 134.841L378.049 135.352C377.935 135.051 377.768 134.759 377.546 134.474C377.33 134.185 377.035 133.946 376.66 133.759C376.285 133.571 375.805 133.477 375.219 133.477C374.418 133.477 373.751 133.662 373.217 134.031C372.688 134.395 372.424 134.858 372.424 135.42C372.424 135.92 372.606 136.315 372.969 136.605C373.333 136.895 373.901 137.136 374.674 137.33L376.617 137.807C377.788 138.091 378.66 138.526 379.234 139.111C379.808 139.69 380.094 140.437 380.094 141.352C380.094 142.102 379.879 142.773 379.447 143.364C379.021 143.955 378.424 144.42 377.657 144.761C376.89 145.102 375.998 145.273 374.981 145.273C373.646 145.273 372.54 144.983 371.665 144.403C370.79 143.824 370.237 142.977 370.004 141.864L371.913 141.386C372.094 142.091 372.438 142.619 372.944 142.972C373.455 143.324 374.123 143.5 374.947 143.5C375.884 143.5 376.629 143.301 377.18 142.903C377.737 142.5 378.015 142.017 378.015 141.455C378.015 141 377.856 140.619 377.538 140.312C377.219 140 376.731 139.767 376.072 139.614L373.89 139.102C372.691 138.818 371.81 138.378 371.248 137.781C370.691 137.179 370.413 136.426 370.413 135.523C370.413 134.784 370.62 134.131 371.035 133.562C371.455 132.994 372.026 132.548 372.748 132.224C373.475 131.901 374.299 131.739 375.219 131.739C376.515 131.739 377.532 132.023 378.271 132.591C379.015 133.159 379.543 133.909 379.856 134.841ZM388.611 145.273C387.349 145.273 386.261 144.994 385.347 144.438C384.438 143.875 383.736 143.091 383.241 142.085C382.753 141.074 382.509 139.898 382.509 138.557C382.509 137.216 382.753 136.034 383.241 135.011C383.736 133.983 384.423 133.182 385.304 132.608C386.19 132.028 387.224 131.739 388.406 131.739C389.088 131.739 389.761 131.852 390.426 132.08C391.091 132.307 391.696 132.676 392.241 133.188C392.787 133.693 393.222 134.364 393.545 135.199C393.869 136.034 394.031 137.062 394.031 138.284V139.136H383.94V137.398H391.986C391.986 136.659 391.838 136 391.543 135.42C391.253 134.841 390.838 134.384 390.298 134.048C389.764 133.713 389.134 133.545 388.406 133.545C387.605 133.545 386.912 133.744 386.327 134.142C385.747 134.534 385.301 135.045 384.989 135.676C384.676 136.307 384.52 136.983 384.52 137.705V138.864C384.52 139.852 384.69 140.69 385.031 141.378C385.378 142.06 385.858 142.58 386.472 142.938C387.085 143.29 387.798 143.466 388.611 143.466C389.139 143.466 389.616 143.392 390.043 143.244C390.474 143.091 390.847 142.864 391.159 142.562C391.472 142.256 391.713 141.875 391.884 141.42L393.827 141.966C393.622 142.625 393.278 143.205 392.795 143.705C392.313 144.199 391.716 144.585 391.006 144.864C390.295 145.136 389.497 145.273 388.611 145.273ZM402.375 150.182C401.403 150.182 400.568 150.057 399.869 149.807C399.17 149.562 398.588 149.239 398.122 148.835C397.662 148.438 397.295 148.011 397.023 147.557L398.625 146.432C398.807 146.67 399.037 146.943 399.315 147.25C399.594 147.562 399.974 147.832 400.457 148.06C400.946 148.293 401.585 148.409 402.375 148.409C403.432 148.409 404.304 148.153 404.991 147.642C405.679 147.131 406.023 146.33 406.023 145.239V142.58H405.852C405.705 142.818 405.494 143.114 405.222 143.466C404.955 143.812 404.568 144.122 404.062 144.395C403.562 144.662 402.886 144.795 402.034 144.795C400.977 144.795 400.028 144.545 399.188 144.045C398.352 143.545 397.69 142.818 397.202 141.864C396.719 140.909 396.477 139.75 396.477 138.386C396.477 137.045 396.713 135.878 397.185 134.884C397.656 133.884 398.313 133.111 399.153 132.565C399.994 132.014 400.966 131.739 402.068 131.739C402.92 131.739 403.597 131.881 404.097 132.165C404.602 132.443 404.989 132.761 405.256 133.119C405.528 133.472 405.739 133.761 405.886 133.989H406.091V131.909H408.034V145.375C408.034 146.5 407.778 147.415 407.267 148.119C406.761 148.83 406.08 149.349 405.222 149.679C404.369 150.014 403.42 150.182 402.375 150.182ZM402.307 142.989C403.114 142.989 403.795 142.804 404.352 142.435C404.909 142.065 405.332 141.534 405.622 140.841C405.912 140.148 406.057 139.318 406.057 138.352C406.057 137.409 405.915 136.577 405.631 135.855C405.347 135.134 404.926 134.568 404.369 134.159C403.813 133.75 403.125 133.545 402.307 133.545C401.455 133.545 400.744 133.761 400.176 134.193C399.614 134.625 399.19 135.205 398.906 135.932C398.628 136.659 398.489 137.466 398.489 138.352C398.489 139.261 398.631 140.065 398.915 140.764C399.205 141.457 399.631 142.003 400.193 142.401C400.761 142.793 401.466 142.989 402.307 142.989ZM419.966 139.648V131.909H421.977V145H419.966V142.784H419.83C419.523 143.449 419.045 144.014 418.398 144.48C417.75 144.94 416.932 145.17 415.943 145.17C415.125 145.17 414.398 144.991 413.761 144.634C413.125 144.27 412.625 143.724 412.261 142.997C411.898 142.264 411.716 141.341 411.716 140.227V131.909H413.727V140.091C413.727 141.045 413.994 141.807 414.528 142.375C415.068 142.943 415.756 143.227 416.591 143.227C417.091 143.227 417.599 143.099 418.116 142.844C418.639 142.588 419.077 142.196 419.429 141.668C419.787 141.139 419.966 140.466 419.966 139.648ZM425.661 145V131.909H427.604V133.886H427.741C427.979 133.239 428.411 132.713 429.036 132.31C429.661 131.906 430.366 131.705 431.15 131.705C431.298 131.705 431.482 131.707 431.704 131.713C431.925 131.719 432.093 131.727 432.207 131.739V133.784C432.138 133.767 431.982 133.741 431.738 133.707C431.499 133.668 431.246 133.648 430.979 133.648C430.343 133.648 429.775 133.781 429.275 134.048C428.781 134.31 428.388 134.673 428.099 135.139C427.815 135.599 427.673 136.125 427.673 136.716V145H425.661ZM439.511 145.273C438.329 145.273 437.292 144.991 436.4 144.429C435.513 143.866 434.82 143.08 434.32 142.068C433.826 141.057 433.579 139.875 433.579 138.523C433.579 137.159 433.826 135.969 434.32 134.952C434.82 133.935 435.513 133.145 436.4 132.582C437.292 132.02 438.329 131.739 439.511 131.739C440.692 131.739 441.727 132.02 442.613 132.582C443.505 133.145 444.198 133.935 444.692 134.952C445.192 135.969 445.442 137.159 445.442 138.523C445.442 139.875 445.192 141.057 444.692 142.068C444.198 143.08 443.505 143.866 442.613 144.429C441.727 144.991 440.692 145.273 439.511 145.273ZM439.511 143.466C440.408 143.466 441.147 143.236 441.727 142.776C442.306 142.315 442.735 141.71 443.013 140.96C443.292 140.21 443.431 139.398 443.431 138.523C443.431 137.648 443.292 136.832 443.013 136.077C442.735 135.321 442.306 134.71 441.727 134.244C441.147 133.778 440.408 133.545 439.511 133.545C438.613 133.545 437.874 133.778 437.295 134.244C436.715 134.71 436.286 135.321 436.008 136.077C435.729 136.832 435.59 137.648 435.59 138.523C435.59 139.398 435.729 140.21 436.008 140.96C436.286 141.71 436.715 142.315 437.295 142.776C437.874 143.236 438.613 143.466 439.511 143.466ZM449.979 145.136C449.558 145.136 449.197 144.986 448.896 144.685C448.595 144.384 448.445 144.023 448.445 143.602C448.445 143.182 448.595 142.821 448.896 142.52C449.197 142.219 449.558 142.068 449.979 142.068C450.399 142.068 450.76 142.219 451.061 142.52C451.362 142.821 451.513 143.182 451.513 143.602C451.513 143.881 451.442 144.136 451.3 144.369C451.163 144.602 450.979 144.79 450.746 144.932C450.518 145.068 450.263 145.136 449.979 145.136ZM456.588 145.136C456.168 145.136 455.807 144.986 455.506 144.685C455.205 144.384 455.054 144.023 455.054 143.602C455.054 143.182 455.205 142.821 455.506 142.52C455.807 142.219 456.168 142.068 456.588 142.068C457.009 142.068 457.369 142.219 457.67 142.52C457.972 142.821 458.122 143.182 458.122 143.602C458.122 143.881 458.051 144.136 457.909 144.369C457.773 144.602 457.588 144.79 457.355 144.932C457.128 145.068 456.872 145.136 456.588 145.136ZM463.197 145.136C462.777 145.136 462.416 144.986 462.115 144.685C461.814 144.384 461.663 144.023 461.663 143.602C461.663 143.182 461.814 142.821 462.115 142.52C462.416 142.219 462.777 142.068 463.197 142.068C463.618 142.068 463.979 142.219 464.28 142.52C464.581 142.821 464.732 143.182 464.732 143.602C464.732 143.881 464.661 144.136 464.518 144.369C464.382 144.602 464.197 144.79 463.964 144.932C463.737 145.068 463.482 145.136 463.197 145.136Z" fill="#018AC7"/>
<path fill-rule="evenodd" clip-rule="evenodd" d="M183.901 196.963C183.901 229.197 157.751 255.347 125.517 255.347H85.3844C53.1503 255.347 27 229.197 27 196.963V86.3844C27 54.1503 53.1503 28 85.3844 28H125.517C157.751 28 183.901 54.1503 183.901 86.3844V196.963ZM139.713 222.793L87.8393 200.378V76.7782L137.792 58.9533C133.522 56.7119 129.359 55.858 124.236 55.858H84.9575C67.9865 55.858 52.6166 68.8798 52.6166 85.8507V196.322C52.6166 213.4 67.9865 227.702 84.9575 227.702H124.236C130.213 227.702 135.016 225.781 139.713 222.793ZM101.181 133.882C98.4062 133.882 96.1647 137.297 96.1647 141.46C96.1647 145.729 98.4062 149.145 101.181 149.145C103.956 149.145 106.091 145.729 106.091 141.46C106.091 137.297 103.956 133.882 101.181 133.882Z" fill="url(#paint0_linear_410_23)"/>
<defs>
<linearGradient id="paint0_linear_410_23" x1="31.2886" y1="372.9" x2="-137.046" y2="154.36" gradientUnits="userSpaceOnUse">
<stop stop-color="#003F8C"/>
<stop offset="1" stop-color="#0096D0"/>
</linearGradient>
</defs>
</svg>
